<svg width="40" height="40" viewBox="0 0 40 40" fill="none" xmlns="http://www.w3.org/2000/svg">
<path d="M19.9999 6.4873C12.5489 6.4873 6.48694 12.5492 6.48694 20.0003C6.48694 27.4514 12.5488 33.5132 19.9999 33.5132C27.451 33.5132 33.5129 27.4514 33.5129 20.0003C33.5129 12.5492 27.4509 6.4873 19.9999 6.4873ZM30.8121 20.5389C30.69 23.0163 29.6375 25.366 27.8874 27.1237C27.8806 27.1305 27.8738 27.1372 27.8671 27.144C24.8213 30.1898 19.8656 30.1897 16.8197 27.144C14.4879 24.8122 14.4879 21.018 16.8197 18.6862C18.5806 16.9255 21.4453 16.9256 23.206 18.6862C24.5097 19.99 24.5097 22.1113 23.206 23.4151C22.3444 24.2766 20.9866 24.347 20.0439 23.626C19.6815 23.3489 19.3364 22.765 19.3191 22.3091C19.3018 21.8559 19.465 21.4262 19.775 21.1012C20.2602 20.5928 20.3371 19.8025 19.8861 19.2634C19.3725 18.6491 18.4561 18.6188 17.9026 19.1723C17.0821 19.9927 16.6303 21.0836 16.6303 22.2439C16.6303 23.4041 17.0821 24.4949 17.9026 25.3154C19.8888 27.3014 23.1203 27.3013 25.1063 25.3154C27.4579 22.9637 27.4578 19.1374 25.1063 16.7859C22.2978 13.9775 17.7279 13.9774 14.9195 16.7859C11.5398 20.1655 11.5398 25.6646 14.9195 29.0442C15.3248 29.4494 15.7555 29.8139 16.2061 30.1389C12.002 28.5606 9.03144 24.439 9.17987 19.6575C9.35841 13.9048 14.0817 9.26122 19.8366 9.17594C25.8803 9.08636 30.8255 13.9767 30.8255 20.0002C30.8254 20.1809 30.821 20.3605 30.8121 20.5389Z" fill="#06D6A0"/>
<path d="M19.9994 5.78003C20.7416 5.78003 21.3431 5.1784 21.3431 4.4363V1.34374C21.3431 0.601635 20.7416 0 19.9994 0C19.2573 0 18.6556 0.601635 18.6556 1.34374V4.4363C18.6556 5.17849 19.2573 5.78003 19.9994 5.78003Z" fill="#06D6A0"/>
<path d="M19.9994 34.2205C19.2573 34.2205 18.6556 34.8221 18.6556 35.5642V38.6568C18.6556 39.3989 19.2573 40.0005 19.9994 40.0005C20.7416 40.0005 21.3431 39.3989 21.3431 38.6568V35.5642C21.343 34.8221 20.7416 34.2205 19.9994 34.2205Z" fill="#06D6A0"/>
<path d="M11.0547 7.19346C11.3035 7.62462 11.7552 7.86551 12.2196 7.86551C12.4475 7.86551 12.6786 7.80746 12.8902 7.68527C13.5329 7.31422 13.7531 6.49239 13.382 5.84973L11.8357 3.17148C11.4647 2.52882 10.6428 2.30854 10.0002 2.67968C9.35751 3.05073 9.13732 3.87255 9.50837 4.51522L11.0547 7.19346Z" fill="#06D6A0"/>
<path d="M28.946 32.8072C28.5749 32.1645 27.753 31.9443 27.1105 32.3154C26.4677 32.6864 26.2475 33.5083 26.6187 34.1509L28.1649 36.8292C28.4138 37.2603 28.8655 37.5012 29.3299 37.5012C29.5579 37.5012 29.7889 37.4432 30.0005 37.321C30.6432 36.9499 30.8634 36.1281 30.4923 35.4854L28.946 32.8072Z" fill="#06D6A0"/>
<path d="M3.1715 11.8357L5.84975 13.382C6.06134 13.5042 6.29237 13.5622 6.52036 13.5622C6.98475 13.5622 7.43652 13.3212 7.68529 12.8902C8.05634 12.2475 7.83614 11.4257 7.19348 11.0546L4.51524 9.50835C3.87248 9.13712 3.05066 9.3574 2.6797 10.0002C2.30856 10.6428 2.52875 11.4646 3.1715 11.8357Z" fill="#06D6A0"/>
<path d="M36.8289 28.1649L34.1506 26.6186C33.5079 26.2473 32.6861 26.4677 32.3151 27.1104C31.9439 27.7531 32.1641 28.5749 32.8069 28.946L35.4851 30.4922C35.6967 30.6144 35.9277 30.6725 36.1557 30.6725C36.6201 30.6725 37.0718 30.4315 37.3207 30.0004C37.6918 29.3578 37.4716 28.536 36.8289 28.1649Z" fill="#06D6A0"/>
<path d="M5.78003 20.0002C5.78003 19.2581 5.1784 18.6565 4.4363 18.6565H1.34374C0.601635 18.6565 0 19.2581 0 20.0002C0 20.7423 0.601635 21.344 1.34374 21.344H4.4363C5.1784 21.344 5.78003 20.7423 5.78003 20.0002Z" fill="#06D6A0"/>
<path d="M38.656 18.6565H35.5635C34.8214 18.6565 34.2197 19.2581 34.2197 20.0002C34.2197 20.7423 34.8214 21.344 35.5635 21.344H38.656C39.3981 21.344 39.9998 20.7423 39.9998 20.0002C39.9998 19.2581 39.3981 18.6565 38.656 18.6565Z" fill="#06D6A0"/>
<path d="M5.84969 26.6185L3.17144 28.1648C2.52878 28.5359 2.30859 29.3577 2.67964 30.0004C2.9285 30.4315 3.38017 30.6724 3.84457 30.6724C4.07246 30.6724 4.30358 30.6144 4.51518 30.4922L7.19342 28.9459C7.83609 28.5748 8.05628 27.753 7.68523 27.1103C7.31418 26.4676 6.49244 26.2474 5.84969 26.6185Z" fill="#06D6A0"/>
<path d="M33.48 13.5623C33.708 13.5623 33.939 13.5043 34.1506 13.3821L36.8289 11.8358C37.4716 11.4648 37.6918 10.6429 37.3207 10.0003C36.9495 9.35753 36.1278 9.13751 35.4851 9.50847L32.8069 11.0548C32.1641 11.4258 31.9439 12.2476 32.3151 12.8903C32.5639 13.3214 33.0156 13.5623 33.48 13.5623Z" fill="#06D6A0"/>
<path d="M12.8902 32.3154C12.2474 31.9441 11.4256 32.1644 11.0547 32.8072L9.50837 35.4854C9.13732 36.1281 9.35751 36.9499 10.0002 37.321C10.2118 37.4431 10.4428 37.5012 10.6708 37.5012C11.1352 37.5012 11.5869 37.2602 11.8357 36.8291L13.382 34.1509C13.7531 33.5082 13.5329 32.6864 12.8902 32.3154Z" fill="#06D6A0"/>
<path d="M27.1105 7.68533C27.3221 7.80752 27.5531 7.86557 27.7811 7.86557C28.2455 7.86557 28.6972 7.62459 28.946 7.19352L30.4923 4.51528C30.8634 3.87252 30.6432 3.0507 30.0005 2.67974C29.3578 2.30851 28.5359 2.52879 28.1649 3.17154L26.6186 5.8497C26.2475 6.49245 26.4678 7.31428 27.1105 7.68533Z" fill="#06D6A0"/>
</svg>
